# xmcd
#
# Track frame offsets:
#	183
#	16220
#	37758
#	54183
#	71395
#	90908
#	107883
#	120920
#	140645
#	158420
#	176733
#	193583
#
# Disc length: 2802 seconds
#
# Revision: 1
# Processed by: cddbd v1.5.2PL0 Copyright (c) Steve Scherf et al.
# Submitted via: audiograbber 1.83.01
#
DISCID=880af00c
DTITLE=Manke Nelis - Een halve Eeuw
DYEAR=1987
DGENRE=hollands
TTITLE0=Manke Nelis - De ezel serenade
TTITLE1=Manke Nelis - Jordaan ballade. Eendjes van de Leliegracht. Dag Amsterda
TTITLE1=m. Aan de voet van die ouwe Wester.
TTITLE2=Manke Nelis - Samen hand in hand. 'n Huisje met een tuintje. Kijk me ev
TTITLE2=entjes aan. Ik weet niet wat ik met je moet beginnen.
TTITLE3=Manke Nelis - De oude hengelaar
TTITLE4=Manke Nelis - Boeketje rode rozen. 's Avonds in de taverne. Snipverkoud
TTITLE4=en. Ik wil alles voor je doen, aardig meisje.
TTITLE5=Manke Nelis - Kom aan m'n hart Marietje. Madelen. Maar zaterdagmiddag. 
TTITLE5=Eenmaal zal ik je weer ontmoeten. Heb meelij Jet. Wie kan mij nou verte
TTITLE5=llen waar ik woon.
TTITLE6=Manke nelis - Kleine jodeljongen
TTITLE7=Manke Nelis - Zwarte zigeuner. Vannacht als de bloemen dromen. 't Sproo
TTITLE7=kje is uit. Waarom gaan wij voorgoed uit elkander.
TTITLE8=Manke Nelis - Ik zing dit lied voor jou alleen. Het mooiste moment in m
TTITLE8=ijn leven. Nooit wist ik.
TTITLE9=Manke Nelis - 's Avonds met jou. Nog steeds begrijp ik niet. Ik blijf i
TTITLE9=n Amsterdam. Ik woon op de hoek van een straatje.
TTITLE10=Manke Nelis - Ze zeggen dat ik een schooier ben. De meid van de straat
TTITLE10=Waarom.
TTITLE11=Manke Nelis - Lou Lou. Anne Marie. Trees heeft een Canadees. Marie die
TTITLE11=vrijt met een huzaar. Carolien.
EXTD=
EXTT0=
EXTT1=
EXTT2=
EXTT3=
EXTT4=
EXTT5=
EXTT6=
EXTT7=
EXTT8=
EXTT9=
EXTT10=
EXTT11=
PLAYORDER=
